<svg xmlns:dc="http://purl.org/dc/elements/1.1/" xmlns:cc="http://creativecommons.org/ns#" xmlns:rdf="http://www.w3.org/1999/02/22-rdf-syntax-ns#" xmlns:svg="http://www.w3.org/2000/svg" xmlns="http://www.w3.org/2000/svg" xmlns:sodipodi="http://sodipodi.sourceforge.net/DTD/sodipodi-0.dtd" xmlns:inkscape="http://www.inkscape.org/namespaces/inkscape" version="1.1" x="0px" y="0px" viewBox="0 0 100 100"><g transform="translate(0,-952.36218)"><path style="text-indent:0;text-transform:none;direction:ltr;block-progression:tb;baseline-shift:baseline;color:#000000;enable-background:accumulate;" d="m 50.000003,966.15342 8.59599,25.79072 a 1.999897,2.000113 0 0 0 1.90293,1.3782 l 27.461215,0 -22.342996,16.34066 a 1.999897,2.000113 0 0 0 -0.7218,2.2312 l 8.59599,26.6767 -22.310199,-16.3079 a 1.999897,2.000113 0 0 0 -2.362251,0 l -22.310199,16.3079 8.59599,-26.6767 a 1.999897,2.000113 0 0 0 -0.7218,-2.2312 l -22.34301,-16.34066 27.461229,0 a 1.999897,2.000113 0 0 0 1.90293,-1.3782 l 8.59598,-25.79072 z" fill="#000000" fill-opacity="1" fill-rule="evenodd" stroke="none" marker="none" visibility="visible" display="inline" overflow="visible"></path></g></svg>