<svg xmlns="http://www.w3.org/2000/svg" width="15.726" height="15" viewBox="0 0 15.726 15">
  <g id="filled_star" data-name="filled star" transform="translate(0 0)">
    <path id="Path_1" data-name="Path 1" d="M19.9,966.153l1.781,5.342a.414.414,0,0,0,.394.285h5.688l-4.628,3.385a.414.414,0,0,0-.15.462l1.781,5.526-4.621-3.378a.414.414,0,0,0-.489,0l-4.621,3.378,1.781-5.526a.414.414,0,0,0-.15-.462l-4.628-3.385h5.688a.414.414,0,0,0,.394-.285l1.78-5.342Z" transform="translate(-12.04 -966.153)" fill="#fb8500" fill-rule="evenodd"/>
  </g>
</svg>
