<svg xmlns="http://www.w3.org/2000/svg" width="35.768" height="40.046" viewBox="0 0 35.768 40.046">
  <g id="Group_53" data-name="Group 53" transform="translate(-44 -515.5)">
    <path id="Path_11" data-name="Path 11" d="M36.377,23.793V6.279A4.279,4.279,0,0,0,32.1,2H9.279A4.279,4.279,0,0,0,5,6.279v27.1a4.279,4.279,0,0,0,4.279,4.279H22.514A9.984,9.984,0,1,0,36.377,23.793ZM9.279,34.8a1.426,1.426,0,0,1-1.426-1.426V6.279A1.426,1.426,0,0,1,9.279,4.852H32.1a1.426,1.426,0,0,1,1.426,1.426v16.1H33.41A9.984,9.984,0,0,0,21.074,34.718v.114Zm21.393,4.279A7.131,7.131,0,0,1,24.5,35.5a6.931,6.931,0,0,1-.956-3.551,7.131,7.131,0,0,1,7.131-7.131,6.9,6.9,0,0,1,3.566.97,7.131,7.131,0,0,1-3.566,13.292Z" transform="translate(39 513.5)"/>
    <path id="Path_12" data-name="Path 12" d="M25.926,20.609,23.3,24.531l-.713-1.07a1.426,1.426,0,0,0-2.368,1.569l1.9,2.852a1.426,1.426,0,0,0,2.382,0l3.794-5.7a1.426,1.426,0,0,0-2.368-1.569Z" transform="translate(45.415 521.205)"/>
    <path id="Path_13" data-name="Path 13" d="M10.426,8.852h11.41a1.426,1.426,0,0,0,0-2.852H10.426a1.426,1.426,0,0,0,0,2.852Z" transform="translate(40.705 515.205)"/>
    <path id="Path_14" data-name="Path 14" d="M10.426,12.852h11.41a1.426,1.426,0,0,0,0-2.852H10.426a1.426,1.426,0,0,0,0,2.852Z" transform="translate(40.705 516.91)"/>
    <path id="Path_15" data-name="Path 15" d="M21.836,14H10.426a1.426,1.426,0,0,0,0,2.852h11.41a1.426,1.426,0,0,0,0-2.852Z" transform="translate(40.705 518.615)"/>
  </g>
</svg>
