<svg xmlns="http://www.w3.org/2000/svg" width="25" height="25" viewBox="0 0 25 25">
  <path id="noun-info-3126147" d="M17.5,5A12.5,12.5,0,1,0,30,17.5,12.5,12.5,0,0,0,17.5,5Zm2.094,18.354a6.263,6.263,0,0,1-2.185,2.072,3.774,3.774,0,0,1-1.781.381c-1.615-.134-2.365-1.351-1.66-3.287l2.123-5.833c.458-1.259.014-1.642-.349-1.651q-.649-.012-1.551,1.216a.32.32,0,1,1-.522-.37,6.263,6.263,0,0,1,2.185-2.072,3.775,3.775,0,0,1,1.781-.381c1.615.134,2.365,1.351,1.66,3.287l-2.123,5.833c-.458,1.259-.014,1.642.349,1.651q.649.012,1.551-1.216a.32.32,0,1,1,.522.37Zm1.7-12.142a1.51,1.51,0,1,1-.9-1.935,1.51,1.51,0,0,1,.9,1.935Z" transform="translate(-5 -5)" fill="#126782"/>
</svg>
