<svg xmlns="http://www.w3.org/2000/svg" width="30.582" height="35.507" viewBox="0 0 30.582 35.507"><g transform="translate(-12.2 -1.9)"><g transform="translate(12.2 1.9)"><g transform="translate(9.785 30.947)"><path d="M40.878,85.8a2.467,2.467,0,0,0-.178.935c0,1.988,2.487,3.625,5.506,3.625s5.506-1.637,5.506-3.625a2.619,2.619,0,0,0-.178-.935Z" transform="translate(-40.7 -85.8)"/></g><path d="M42.783,26.723a1.242,1.242,0,0,0-.364-.708c-.04-.034-3.277-2.968-3.277-10.725,0-6.037-4.854-8.566-8.859-9.342V4.193A2.581,2.581,0,0,0,27.532,1.9,2.622,2.622,0,0,0,24.74,4.193V5.981c-4,.776-8.859,3.271-8.859,9.342,0,7.757-3.236,10.691-3.277,10.691a1.1,1.1,0,0,0-.4.708h0v2.125H42.783V26.723Z" transform="translate(-12.2 -1.9)"/></g></g></svg>