<svg xmlns="http://www.w3.org/2000/svg" xmlns:xlink="http://www.w3.org/1999/xlink" xmlns:serif="http://www.serif.com/" viewBox="0 0 48 48" version="1.1" xml:space="preserve" style="" x="0px" y="0px" fill-rule="evenodd" clip-rule="evenodd" stroke-linejoin="round" stroke-miterlimit="2"><g transform="matrix(1,0,0,1,-144,-144)"><g><g transform="matrix(1,0,0,1,2,0)"><path d="M148,177C146.344,177 145,178.344 145,180C145,181.656 146.344,183 148,183C149.656,183 151,181.656 151,180C151,178.344 149.656,177 148,177ZM148,165C146.344,165 145,166.344 145,168C145,169.656 146.344,171 148,171C149.656,171 151,169.656 151,168C151,166.344 149.656,165 148,165ZM148,153C146.344,153 145,154.344 145,156C145,157.656 146.344,159 148,159C149.656,159 151,157.656 151,156C151,154.344 149.656,153 148,153Z"></path></g><g transform="matrix(1,0,0,1,2,0)"><path d="M153,180C153,181.657 154.343,183 156,183L184,183C185.657,183 187,181.657 187,180C187,180 187,180 187,180C187,178.343 185.657,177 184,177L156,177C154.343,177 153,178.343 153,180ZM153,168C153,169.657 154.343,171 156,171L184,171C185.657,171 187,169.657 187,168C187,168 187,168 187,168C187,166.343 185.657,165 184,165L156,165C154.343,165 153,166.343 153,168ZM153,156C153,157.657 154.343,159 156,159L184,159C185.657,159 187,157.657 187,156C187,156 187,156 187,156C187,154.343 185.657,153 184,153L156,153C154.343,153 153,154.343 153,156Z"></path></g></g></g></svg>