<svg xmlns="http://www.w3.org/2000/svg" width="39.2" height="28" viewBox="0 0 39.2 28">
  <g id="noun-list-4781885" transform="translate(-147 -153)">
    <g id="Group_78" data-name="Group 78" transform="translate(147 153)">
      <g id="Group_76" data-name="Group 76">
        <path id="Path_40" data-name="Path 40" d="M147.8,175.4a2.8,2.8,0,1,0,2.8,2.8A2.8,2.8,0,0,0,147.8,175.4Zm0-11.2a2.8,2.8,0,1,0,2.8,2.8A2.8,2.8,0,0,0,147.8,164.2Zm0-11.2a2.8,2.8,0,1,0,2.8,2.8A2.8,2.8,0,0,0,147.8,153Z" transform="translate(-145 -153)" fill="#034363" fill-rule="evenodd"/>
      </g>
      <g id="Group_77" data-name="Group 77" transform="translate(7.467)">
        <path id="Path_41" data-name="Path 41" d="M153,178.2a2.8,2.8,0,0,0,2.8,2.8h26.133a2.8,2.8,0,0,0,2.8-2.8h0a2.8,2.8,0,0,0-2.8-2.8H155.8A2.8,2.8,0,0,0,153,178.2Zm0-11.2a2.8,2.8,0,0,0,2.8,2.8h26.133a2.8,2.8,0,0,0,2.8-2.8h0a2.8,2.8,0,0,0-2.8-2.8H155.8A2.8,2.8,0,0,0,153,167Zm0-11.2a2.8,2.8,0,0,0,2.8,2.8h26.133a2.8,2.8,0,0,0,2.8-2.8h0a2.8,2.8,0,0,0-2.8-2.8H155.8A2.8,2.8,0,0,0,153,155.8Z" transform="translate(-153 -153)" fill="#034363" fill-rule="evenodd"/>
      </g>
    </g>
  </g>
</svg>
