<svg xmlns="http://www.w3.org/2000/svg" width="20" height="20" viewBox="0 0 20 20">
  <path id="noun-info-3126147" d="M15,5A10,10,0,1,0,25,15,10,10,0,0,0,15,5Zm1.676,14.684a5.01,5.01,0,0,1-1.748,1.658,3.019,3.019,0,0,1-1.425.3c-1.292-.107-1.892-1.081-1.328-2.629l1.7-4.666c.367-1.007.011-1.313-.279-1.321q-.519-.01-1.241.972a.256.256,0,1,1-.418-.3,5.011,5.011,0,0,1,1.748-1.658,3.02,3.02,0,0,1,1.425-.3c1.292.107,1.892,1.081,1.328,2.629l-1.7,4.666c-.367,1.007-.011,1.313.279,1.321q.519.01,1.241-.972a.256.256,0,1,1,.418.3ZM18.038,9.97a1.208,1.208,0,1,1-.722-1.548,1.208,1.208,0,0,1,.722,1.548Z" transform="translate(-5 -5)" fill="#034363"/>
</svg>
