<svg xmlns="http://www.w3.org/2000/svg" width="25" height="25.026" viewBox="0 0 25 25.026">
  <g id="noun-calendar-2080653" transform="translate(-2.6 -2.5)">
    <path id="Path_53" data-name="Path 53" d="M24.726,4.531H22.194V3.318a.822.822,0,0,0-.818-.818H19.161a.822.822,0,0,0-.818.818V4.531H11.856V3.318a.822.822,0,0,0-.818-.818H8.824a.822.822,0,0,0-.818.818V4.531H5.474A2.881,2.881,0,0,0,2.6,7.405V24.652a2.881,2.881,0,0,0,2.874,2.874H24.726A2.881,2.881,0,0,0,27.6,24.652V7.405A2.881,2.881,0,0,0,24.726,4.531Zm0,21.1H5.474a.945.945,0,0,1-.949-.949V9.831H25.7V24.652A.991.991,0,0,1,24.726,25.628Z" fill="#034363"/>
    <path id="Path_54" data-name="Path 54" d="M21.229,37.9H17.854a.557.557,0,0,0-.554.554v1.582a.557.557,0,0,0,.554.554h3.376a.557.557,0,0,0,.554-.554V38.454A.541.541,0,0,0,21.229,37.9Z" transform="translate(-10.823 -26.065)" fill="#034363"/>
    <path id="Path_55" data-name="Path 55" d="M45.529,37.9H42.154a.557.557,0,0,0-.554.554v1.582a.557.557,0,0,0,.554.554h3.376a.557.557,0,0,0,.554-.554V38.454A.541.541,0,0,0,45.529,37.9Z" transform="translate(-28.715 -26.065)" fill="#034363"/>
    <path id="Path_56" data-name="Path 56" d="M69.829,37.9H66.454a.557.557,0,0,0-.554.554v1.582a.557.557,0,0,0,.554.554h3.376a.557.557,0,0,0,.554-.554V38.454A.541.541,0,0,0,69.829,37.9Z" transform="translate(-46.607 -26.065)" fill="#034363"/>
    <path id="Path_57" data-name="Path 57" d="M21.229,55.3H17.854a.557.557,0,0,0-.554.554v1.582a.557.557,0,0,0,.554.554h3.376a.557.557,0,0,0,.554-.554V55.854A.557.557,0,0,0,21.229,55.3Z" transform="translate(-10.823 -38.876)" fill="#034363"/>
    <path id="Path_58" data-name="Path 58" d="M45.529,55.3H42.154a.557.557,0,0,0-.554.554v1.582a.557.557,0,0,0,.554.554h3.376a.557.557,0,0,0,.554-.554V55.854A.557.557,0,0,0,45.529,55.3Z" transform="translate(-28.715 -38.876)" fill="#034363"/>
    <path id="Path_59" data-name="Path 59" d="M69.829,55.3H66.454a.557.557,0,0,0-.554.554v1.582a.557.557,0,0,0,.554.554h3.376a.557.557,0,0,0,.554-.554V55.854A.557.557,0,0,0,69.829,55.3Z" transform="translate(-46.607 -38.876)" fill="#034363"/>
    <path id="Path_60" data-name="Path 60" d="M21.229,72.8H17.854a.557.557,0,0,0-.554.554v1.582a.557.557,0,0,0,.554.554h3.376a.557.557,0,0,0,.554-.554V73.354A.541.541,0,0,0,21.229,72.8Z" transform="translate(-10.823 -51.761)" fill="#034363"/>
    <path id="Path_61" data-name="Path 61" d="M45.529,72.8H42.154a.557.557,0,0,0-.554.554v1.582a.557.557,0,0,0,.554.554h3.376a.557.557,0,0,0,.554-.554V73.354A.541.541,0,0,0,45.529,72.8Z" transform="translate(-28.715 -51.761)" fill="#034363"/>
    <path id="Path_62" data-name="Path 62" d="M69.829,72.8H66.454a.557.557,0,0,0-.554.554v1.582a.557.557,0,0,0,.554.554h3.376a.557.557,0,0,0,.554-.554V73.354A.541.541,0,0,0,69.829,72.8Z" transform="translate(-46.607 -51.761)" fill="#034363"/>
  </g>
</svg>
