<svg xmlns="http://www.w3.org/2000/svg" width="40.577" height="40.577" viewBox="0 0 40.577 40.577">
  <g id="noun-news-1366052" transform="translate(-8.07 -8.07)">
    <path id="Path_18" data-name="Path 18" d="M48.647,13.876A5.806,5.806,0,0,0,42.84,8.07H13.876A5.806,5.806,0,0,0,8.07,13.876V42.84a5.806,5.806,0,0,0,5.806,5.806H42.84a5.806,5.806,0,0,0,5.806-5.806Zm-2.9,28.964a2.9,2.9,0,0,1-2.9,2.9H13.876a2.9,2.9,0,0,1-2.9-2.9V13.876a2.9,2.9,0,0,1,2.9-2.9H42.84a2.9,2.9,0,0,1,2.9,2.9Z"/>
    <path id="Path_19" data-name="Path 19" d="M20.922,36.79H34.242a1.452,1.452,0,0,0,1.452-1.452V24.452A1.452,1.452,0,0,0,34.242,23H20.922a1.452,1.452,0,0,0-1.452,1.452V35.339A1.452,1.452,0,0,0,20.922,36.79ZM22.373,25.9H32.791v7.984H22.373Z" transform="translate(-5.884 -7.706)"/>
    <path id="Path_20" data-name="Path 20" d="M67.723,23H59.982a1.452,1.452,0,0,0,0,2.9h7.742a1.452,1.452,0,0,0,0-2.9Z" transform="translate(-26.044 -7.706)"/>
    <path id="Path_21" data-name="Path 21" d="M67.723,35H59.982a1.452,1.452,0,0,0,0,2.9h7.742a1.452,1.452,0,0,0,0-2.9Z" transform="translate(-26.044 -13.9)"/>
    <path id="Path_22" data-name="Path 22" d="M67.723,47H59.982a1.452,1.452,0,0,0,0,2.9h7.742a1.452,1.452,0,0,0,0-2.9Z" transform="translate(-26.044 -20.093)"/>
    <path id="Path_23" data-name="Path 23" d="M47.594,59H20.982a1.452,1.452,0,0,0,0,2.9H47.594a1.452,1.452,0,1,0,0-2.9Z" transform="translate(-5.915 -26.287)"/>
    <path id="Path_24" data-name="Path 24" d="M47.594,71H20.982a1.452,1.452,0,1,0,0,2.9H47.594a1.452,1.452,0,1,0,0-2.9Z" transform="translate(-5.915 -32.481)"/>
  </g>
</svg>
