<svg xmlns="http://www.w3.org/2000/svg" width="31.886" height="28" viewBox="0 0 31.886 28">
  <g id="noun-filter-2034641" transform="translate(-1 -4.9)">
    <g id="Group_84" data-name="Group 84" transform="translate(1 4.9)">
      <g id="Group_83" data-name="Group 83" transform="translate(0)">
        <path id="Path_63" data-name="Path 63" d="M32.886,6.594a1.712,1.712,0,0,1-1.694,1.694H2.694A1.65,1.65,0,0,1,1,6.594,1.68,1.68,0,0,1,2.694,4.9H31.142A1.723,1.723,0,0,1,32.886,6.594Z" transform="translate(-1 -4.9)" fill="#034363"/>
      </g>
    </g>
    <g id="Group_86" data-name="Group 86" transform="translate(3.142 9.334)">
      <g id="Group_85" data-name="Group 85" transform="translate(0 0)">
        <path id="Path_64" data-name="Path 64" d="M32.9,13.8,22.24,28.946v5.58a.436.436,0,0,1-.3.448l-5.281,2.342a.3.3,0,0,1-.2.05c-.1,0-.2,0-.249-.1a.508.508,0,0,1-.249-.4V28.946L5.3,13.8Z" transform="translate(-5.3 -13.8)" fill="#034363"/>
      </g>
    </g>
  </g>
</svg>
