<svg xmlns="http://www.w3.org/2000/svg" width="22" height="22" viewBox="0 0 22 22">
  <g id="noun-timer-2095142" transform="translate(-12.47 -12.47)">
    <path id="Path_45" data-name="Path 45" d="M23.47,33.47a10,10,0,1,1,10-10,10,10,0,0,1-10,10Zm0-19.855a9.855,9.855,0,1,0,9.855,9.855A9.855,9.855,0,0,0,23.47,13.615Z" transform="translate(0)" fill="#034363" stroke="#034363" stroke-width="2"/>
    <path id="Path_46" data-name="Path 46" d="M27.539,27.537h0V19.07a8.525,8.525,0,0,0-2.19.287,8.492,8.492,0,0,0-5.99,5.99,8.508,8.508,0,0,0,0,4.38,8.492,8.492,0,0,0,5.99,5.99,8.508,8.508,0,0,0,4.38,0,8.511,8.511,0,0,0,5.141-3.947Z" transform="translate(-4.069 -4.067)" fill="#034363"/>
  </g>
</svg>
