<svg xmlns="http://www.w3.org/2000/svg" width="20.065" height="19.599" viewBox="0 0 20.065 19.599">
  <path id="np_edit_4779758_000000" d="M3.727,5.776H14.9L13.158,7.514H3.727a.009.009,0,0,0-.009.009V20.951a.009.009,0,0,0,.009.009H17.155a.009.009,0,0,0,.009-.009v-8.5L18.9,10.718V20.951A1.752,1.752,0,0,1,17.155,22.7H3.727A1.752,1.752,0,0,1,1.98,20.951V7.523A1.752,1.752,0,0,1,3.727,5.776Zm7.11,8.531A4,4,0,0,0,8.892,13.2l-.067.067-.631,3.685,3.685-.631.067-.067a4,4,0,0,0-1.109-1.945Zm8.579-11.1a.38.38,0,0,0-.536,0L17.628,4.462l3.054,3.054,1.253-1.253a.38.38,0,0,0,0-.536Zm.557,5.017L16.919,5.173,9.7,12.392a5.376,5.376,0,0,1,3.055,3.055Z" transform="translate(-1.98 -3.099)" fill="#034363" fill-rule="evenodd"/>
</svg>
