<svg xmlns="http://www.w3.org/2000/svg" width="14" height="14" viewBox="0 0 14 14">
  <g id="noun-coin-3324289" transform="translate(-230.91 -122.91)">
    <path id="Path_9" data-name="Path 9" d="M13.91,6.91a7,7,0,1,0,7,7A7,7,0,0,0,13.91,6.91ZM14.4,16.957h-.067v.784a.418.418,0,0,1-.837,0v-.784h-.915a.418.418,0,1,1,0-.837H14.4a.9.9,0,0,0,0-1.791h-.971a1.733,1.733,0,0,1,0-3.465h.067v-.784a.418.418,0,0,1,.837,0v.784h.915a.418.418,0,1,1,0,.837H13.425a.9.9,0,1,0,0,1.791H14.4a1.733,1.733,0,1,1,0,3.465Z" transform="translate(224 116)" fill="#fb8500"/>
  </g>
</svg>
