<svg xmlns="http://www.w3.org/2000/svg" width="162.031" height="30.079" viewBox="0 0 162.031 30.079">
  <g id="Group_12" data-name="Group 12" transform="translate(-15 -527.501)">
    <g id="filled_star" data-name="filled star" transform="translate(2.96 -437.071)">
      <path id="Path_1" data-name="Path 1" d="M26.29,966.153l3.227,9.682a.751.751,0,0,0,.714.517H40.54l-8.387,6.134a.751.751,0,0,0-.271.838l3.227,10.014-8.375-6.122a.751.751,0,0,0-.887,0l-8.375,6.122L20.7,983.324a.751.751,0,0,0-.271-.838l-8.387-6.134H22.349a.751.751,0,0,0,.714-.517l3.227-9.682Z" fill="#fb8500" fill-rule="evenodd"/>
    </g>
    <g id="filled_star-2" data-name="filled star" transform="translate(35.96 -437.071)">
      <path id="Path_1-2" data-name="Path 1" d="M26.29,966.153l3.227,9.682a.751.751,0,0,0,.714.517H40.54l-8.387,6.134a.751.751,0,0,0-.271.838l3.227,10.014-8.375-6.122a.751.751,0,0,0-.887,0l-8.375,6.122L20.7,983.324a.751.751,0,0,0-.271-.838l-8.387-6.134H22.349a.751.751,0,0,0,.714-.517l3.227-9.682Z" fill="#fb8500" fill-rule="evenodd"/>
    </g>
    <g id="filled_star-3" data-name="filled star" transform="translate(68.96 -437.071)">
      <path id="Path_1-3" data-name="Path 1" d="M26.29,966.153l3.227,9.682a.751.751,0,0,0,.714.517H40.54l-8.387,6.134a.751.751,0,0,0-.271.838l3.227,10.014-8.375-6.122a.751.751,0,0,0-.887,0l-8.375,6.122L20.7,983.324a.751.751,0,0,0-.271-.838l-8.387-6.134H22.349a.751.751,0,0,0,.714-.517l3.227-9.682Z" fill="#fb8500" fill-rule="evenodd"/>
    </g>
    <g id="filled_star-4" data-name="filled star" transform="translate(101.96 -437.071)">
      <path id="Path_1-4" data-name="Path 1" d="M26.29,966.153l3.227,9.682a.751.751,0,0,0,.714.517H40.54l-8.387,6.134a.751.751,0,0,0-.271.838l3.227,10.014-8.375-6.122a.751.751,0,0,0-.887,0l-8.375,6.122L20.7,983.324a.751.751,0,0,0-.271-.838l-8.387-6.134H22.349a.751.751,0,0,0,.714-.517l3.227-9.682Z" fill="#fb8500" fill-rule="evenodd"/>
    </g>
    <g id="filled_star-5" data-name="filled star" transform="translate(134.96 -437.071)">
      <path id="Path_1-5" data-name="Path 1" d="M26.29,966.153l3.227,9.682a.751.751,0,0,0,.714.517H40.54l-8.387,6.134a.751.751,0,0,0-.271.838l3.227,10.014-8.375-6.122a.751.751,0,0,0-.887,0l-8.375,6.122L20.7,983.324a.751.751,0,0,0-.271-.838l-8.387-6.134H22.349a.751.751,0,0,0,.714-.517l3.227-9.682Z" fill="none" stroke="#fb8500" stroke-width="1" fill-rule="evenodd"/>
    </g>
  </g>
</svg>
